<svg width="48" height="48" viewBox="0 0 48 48" fill="none" xmlns="http://www.w3.org/2000/svg">
<path d="M6 0.5H42C45.0376 0.5 47.5 2.96243 47.5 6V42C47.5 45.0376 45.0376 47.5 42 47.5H6C2.96243 47.5 0.5 45.0376 0.5 42V6C0.5 2.96243 2.96243 0.5 6 0.5Z" fill="white" stroke="#E7E7E7"/>
<path d="M37.7071 24.7071C38.0976 24.3166 38.0976 23.6834 37.7071 23.2929L31.3431 16.9289C30.9526 16.5384 30.3195 16.5384 29.9289 16.9289C29.5384 17.3195 29.5384 17.9526 29.9289 18.3431L35.5858 24L29.9289 29.6569C29.5384 30.0474 29.5384 30.6805 29.9289 31.0711C30.3195 31.4616 30.9526 31.4616 31.3431 31.0711L37.7071 24.7071ZM9 25H37V23H9V25Z" fill="black"/>
</svg>
