<svg width="48" height="48" viewBox="0 0 48 48" fill="none" xmlns="http://www.w3.org/2000/svg">
<path d="M42 47.5L6 47.5C2.96243 47.5 0.5 45.0376 0.5 42L0.5 6C0.5 2.96243 2.96243 0.5 6 0.5L42 0.5C45.0376 0.5 47.5 2.96243 47.5 6L47.5 42C47.5 45.0376 45.0376 47.5 42 47.5Z" fill="white" stroke="#E7E7E7"/>
<path d="M10.2929 23.2929C9.90237 23.6834 9.90237 24.3166 10.2929 24.7071L16.6569 31.0711C17.0474 31.4616 17.6805 31.4616 18.0711 31.0711C18.4616 30.6805 18.4616 30.0474 18.0711 29.6569L12.4142 24L18.0711 18.3431C18.4616 17.9526 18.4616 17.3195 18.0711 16.9289C17.6805 16.5384 17.0474 16.5384 16.6569 16.9289L10.2929 23.2929ZM39 23L11 23V25L39 25V23Z" fill="black"/>
</svg>
